<mxfile host="app.diagrams.net" modified="2020-08-10T06:32:30.656Z" agent="5.0 (Macintosh; Intel Mac OS X 10_14_4) AppleWebKit/537.36 (KHTML, like Gecko) Chrome/84.0.4147.105 Safari/537.36" etag="AxBrUOgLAL6BAOXcQYLa" version="13.6.2" type="github" pages="2">
  <diagram id="deT0m9-18rEYpZOrqTmr" name="Page-1">
    <mxGraphModel dx="750" dy="521" grid="1" gridSize="10" guides="1" tooltips="1" connect="1" arrows="1" fold="1" page="1" pageScale="1" pageWidth="827" pageHeight="1169" math="0" shadow="0">
      <root>
        <mxCell id="0" />
        <mxCell id="1" parent="0" />
        <mxCell id="BcJTExptKbddHhEVcbfm-1" value="&lt;div&gt;&lt;span&gt;ETCD&lt;/span&gt;&lt;/div&gt;" style="shape=cylinder2;whiteSpace=wrap;html=1;boundedLbl=1;backgroundOutline=1;size=15;align=center;" vertex="1" parent="1">
          <mxGeometry x="375" y="330" width="50" height="70" as="geometry" />
        </mxCell>
        <mxCell id="BcJTExptKbddHhEVcbfm-11" value="" style="edgeStyle=elbowEdgeStyle;shape=flexArrow;rounded=0;orthogonalLoop=1;jettySize=auto;html=1;startSize=1;endSize=4.67;strokeWidth=1;entryX=1;entryY=0.5;entryDx=0;entryDy=0;width=8;fillColor=#60a917;strokeColor=#2D7600;endWidth=10;" edge="1" parent="1" source="BcJTExptKbddHhEVcbfm-2" target="BcJTExptKbddHhEVcbfm-9">
          <mxGeometry relative="1" as="geometry">
            <Array as="points">
              <mxPoint x="310" y="260" />
            </Array>
          </mxGeometry>
        </mxCell>
        <mxCell id="BcJTExptKbddHhEVcbfm-12" style="edgeStyle=elbowEdgeStyle;shape=flexArrow;rounded=0;orthogonalLoop=1;jettySize=auto;html=1;startSize=1;endSize=11.67;strokeWidth=1;endWidth=16;width=12;fillColor=#0050ef;strokeColor=#001DBC;" edge="1" parent="1" source="BcJTExptKbddHhEVcbfm-2">
          <mxGeometry relative="1" as="geometry">
            <mxPoint x="590" y="130" as="targetPoint" />
            <Array as="points">
              <mxPoint x="530" y="130" />
              <mxPoint x="530" y="180" />
            </Array>
          </mxGeometry>
        </mxCell>
        <mxCell id="BcJTExptKbddHhEVcbfm-2" value="&lt;font style=&quot;font-size: 18px&quot;&gt;UVE&lt;/font&gt;" style="rounded=0;whiteSpace=wrap;html=1;fillColor=#fff2cc;strokeColor=#d6b656;gradientColor=#ffd966;" vertex="1" parent="1">
          <mxGeometry x="340" y="100" width="120" height="60" as="geometry" />
        </mxCell>
        <mxCell id="BcJTExptKbddHhEVcbfm-10" value="" style="edgeStyle=elbowEdgeStyle;rounded=0;orthogonalLoop=1;jettySize=auto;html=1;shape=flexArrow;strokeWidth=1;fillColor=#60a917;strokeColor=#2D7600;endSize=4;startSize=1;" edge="1" parent="1" source="BcJTExptKbddHhEVcbfm-3" target="BcJTExptKbddHhEVcbfm-9">
          <mxGeometry relative="1" as="geometry" />
        </mxCell>
        <mxCell id="BcJTExptKbddHhEVcbfm-3" value="&lt;font style=&quot;font-size: 18px&quot;&gt;&lt;b&gt;华为云&lt;/b&gt;&lt;/font&gt;" style="ellipse;shape=cloud;whiteSpace=wrap;html=1;fillColor=#dae8fc;strokeColor=#6c8ebf;" vertex="1" parent="1">
          <mxGeometry x="130" y="100" width="120" height="80" as="geometry" />
        </mxCell>
        <mxCell id="BcJTExptKbddHhEVcbfm-4" value="Actor" style="shape=umlActor;verticalLabelPosition=bottom;verticalAlign=top;html=1;outlineConnect=0;fillColor=#d5e8d4;strokeColor=#82b366;" vertex="1" parent="1">
          <mxGeometry x="590" y="90" width="30" height="60" as="geometry" />
        </mxCell>
        <mxCell id="BcJTExptKbddHhEVcbfm-6" value="" style="endArrow=none;html=1;entryX=0.5;entryY=1;entryDx=0;entryDy=0;" edge="1" parent="1" source="BcJTExptKbddHhEVcbfm-1" target="BcJTExptKbddHhEVcbfm-2">
          <mxGeometry width="50" height="50" relative="1" as="geometry">
            <mxPoint x="360" y="280" as="sourcePoint" />
            <mxPoint x="410" y="230" as="targetPoint" />
          </mxGeometry>
        </mxCell>
        <mxCell id="BcJTExptKbddHhEVcbfm-9" value="" style="shape=cylinder;whiteSpace=wrap;html=1;boundedLbl=1;backgroundOutline=1;strokeColor=#6c8ebf;fillColor=#dae8fc;" vertex="1" parent="1">
          <mxGeometry x="160" y="330" width="60" height="80" as="geometry" />
        </mxCell>
        <mxCell id="BcJTExptKbddHhEVcbfm-13" value="" style="edgeStyle=segmentEdgeStyle;endArrow=classic;html=1;strokeWidth=1;jumpStyle=sharp;" edge="1" parent="1" target="BcJTExptKbddHhEVcbfm-4">
          <mxGeometry width="50" height="50" relative="1" as="geometry">
            <mxPoint x="430" y="360" as="sourcePoint" />
            <mxPoint x="475" y="260" as="targetPoint" />
            <Array as="points">
              <mxPoint x="605" y="360" />
            </Array>
          </mxGeometry>
        </mxCell>
        <mxCell id="BcJTExptKbddHhEVcbfm-14" value="&lt;font color=&quot;#a680b8&quot; style=&quot;line-height: 150%&quot;&gt;Text&lt;/font&gt;" style="edgeLabel;html=1;align=center;verticalAlign=middle;resizable=0;points=[];" vertex="1" connectable="0" parent="BcJTExptKbddHhEVcbfm-13">
          <mxGeometry x="0.5059" relative="1" as="geometry">
            <mxPoint as="offset" />
          </mxGeometry>
        </mxCell>
        <mxCell id="BcJTExptKbddHhEVcbfm-15" value="" style="shape=mxgraph.bpmn.shape;html=1;verticalLabelPosition=bottom;labelBackgroundColor=#ffffff;verticalAlign=top;align=center;perimeter=ellipsePerimeter;outlineConnect=0;outline=end;symbol=message;" vertex="1" parent="1">
          <mxGeometry x="50" y="80" width="50" height="50" as="geometry" />
        </mxCell>
        <mxCell id="BcJTExptKbddHhEVcbfm-54" value="" style="html=1;dashed=0;whitespace=wrap;fillColor=#2875E2;strokeColor=#ffffff;points=[[0.005,0.63,0],[0.1,0.2,0],[0.9,0.2,0],[0.5,0,0],[0.995,0.63,0],[0.72,0.99,0],[0.5,1,0],[0.28,0.99,0]];shape=mxgraph.kubernetes.icon;prIcon=api" vertex="1" parent="1">
          <mxGeometry x="60" y="290" width="50" height="48" as="geometry" />
        </mxCell>
        <mxCell id="BcJTExptKbddHhEVcbfm-62" value="" style="image;html=1;image=img/lib/clip_art/networking/Firewall_128x128.png" vertex="1" parent="1">
          <mxGeometry x="670" y="50" width="80" height="80" as="geometry" />
        </mxCell>
        <mxCell id="BcJTExptKbddHhEVcbfm-63" value="" style="image;html=1;image=img/lib/clip_art/networking/Firewall-page1_128x128.png" vertex="1" parent="1">
          <mxGeometry x="430" y="440" width="80" height="80" as="geometry" />
        </mxCell>
        <mxCell id="BcJTExptKbddHhEVcbfm-65" value="" style="image;html=1;image=img/lib/clip_art/networking/Switch_128x128.png" vertex="1" parent="1">
          <mxGeometry x="280" y="490" width="80" height="80" as="geometry" />
        </mxCell>
        <mxCell id="BcJTExptKbddHhEVcbfm-66" value="" style="image;html=1;image=img/lib/clip_art/networking/Cloud_128x128.png" vertex="1" parent="1">
          <mxGeometry x="600" y="350" width="80" height="80" as="geometry" />
        </mxCell>
        <mxCell id="BcJTExptKbddHhEVcbfm-67" value="" style="image;html=1;image=img/lib/clip_art/networking/Router_Icon_128x128.png" vertex="1" parent="1">
          <mxGeometry x="580" y="500" width="80" height="80" as="geometry" />
        </mxCell>
        <mxCell id="BcJTExptKbddHhEVcbfm-68" value="" style="image;html=1;image=img/lib/clip_art/people/Suit_Woman_Green_128x128.png" vertex="1" parent="1">
          <mxGeometry x="510" y="380" width="80" height="80" as="geometry" />
        </mxCell>
        <mxCell id="BcJTExptKbddHhEVcbfm-69" value="" style="image;html=1;image=img/lib/clip_art/general/Earth_globe_128x128.png" vertex="1" parent="1">
          <mxGeometry x="30" y="390" width="80" height="80" as="geometry" />
        </mxCell>
        <mxCell id="BcJTExptKbddHhEVcbfm-72" value="Dark" style="rounded=1;whiteSpace=wrap;html=1;arcSize=50;strokeColor=none;strokeWidth=1;fillColor=#343A40;fontColor=#ffffff;whiteSpace=wrap;align=left;verticalAlign=middle;spacingLeft=0;fontStyle=1;fontSize=14;spacing=10;" vertex="1" parent="1">
          <mxGeometry x="60" y="510" width="50" height="20" as="geometry" />
        </mxCell>
        <mxCell id="BcJTExptKbddHhEVcbfm-73" value="New" style="html=1;shadow=0;dashed=0;shape=mxgraph.bootstrap.rrect;rSize=5;strokeColor=none;strokeWidth=1;fillColor=#6C767D;fontColor=#FFFFFF;whiteSpace=wrap;align=left;verticalAlign=middle;spacingLeft=10;fontStyle=1;fontSize=18;" vertex="1" parent="1">
          <mxGeometry x="260" y="460" width="60" height="40" as="geometry" />
        </mxCell>
        <mxCell id="BcJTExptKbddHhEVcbfm-74" value="Warning" style="html=1;shadow=0;dashed=0;shape=mxgraph.bootstrap.rrect;rSize=5;strokeColor=none;strokeWidth=1;fillColor=#FFBC26;fontColor=#000000;whiteSpace=wrap;align=left;verticalAlign=middle;spacingLeft=0;fontStyle=1;fontSize=14;spacing=5;" vertex="1" parent="1">
          <mxGeometry x="80" y="580" width="65" height="20" as="geometry" />
        </mxCell>
        <mxCell id="BcJTExptKbddHhEVcbfm-76" value="" style="dashed=0;outlineConnect=0;html=1;align=center;labelPosition=center;verticalLabelPosition=bottom;verticalAlign=top;shape=mxgraph.webicons.onedrive;gradientColor=#DFDEDE" vertex="1" parent="1">
          <mxGeometry x="419" y="520" width="102.4" height="102.4" as="geometry" />
        </mxCell>
        <mxCell id="BcJTExptKbddHhEVcbfm-77" value="" style="dashed=0;outlineConnect=0;html=1;align=center;labelPosition=center;verticalLabelPosition=bottom;verticalAlign=top;shape=mxgraph.weblogos.twitter;fillColor=#1DA1F2;strokeColor=none" vertex="1" parent="1">
          <mxGeometry x="480" y="240" width="80" height="70" as="geometry" />
        </mxCell>
        <mxCell id="BcJTExptKbddHhEVcbfm-78" value="" style="image;html=1;image=img/lib/clip_art/networking/Firewall_02_128x128.png" vertex="1" parent="1">
          <mxGeometry x="160" y="480" width="80" height="80" as="geometry" />
        </mxCell>
        <mxCell id="BcJTExptKbddHhEVcbfm-64" value="" style="image;html=1;image=img/lib/clip_art/networking/Firewall_02_128x128.png" vertex="1" parent="1">
          <mxGeometry x="130" y="480" width="80" height="80" as="geometry" />
        </mxCell>
      </root>
    </mxGraphModel>
  </diagram>
  <diagram id="y7ZdbsFU_zFN2hNzIEZy" name="Page-2">
    <mxGraphModel dx="750" dy="521" grid="1" gridSize="10" guides="1" tooltips="1" connect="1" arrows="1" fold="1" page="1" pageScale="1" pageWidth="827" pageHeight="1169" math="0" shadow="0">
      <root>
        <mxCell id="qSq4R8ttlVbLq-P4uQf9-0" />
        <mxCell id="qSq4R8ttlVbLq-P4uQf9-1" parent="qSq4R8ttlVbLq-P4uQf9-0" />
      </root>
    </mxGraphModel>
  </diagram>
</mxfile>
